<?xml version="1.0" standalone="no"?><svg xmlns="http://www.w3.org/2000/svg" viewBox="0 0 1440 320"><path fill="#0099ff" fill-opacity="1" d="M0,192L26.7,176C53.3,160,107,128,160,133.3C213.3,139,267,181,320,208C373.3,235,427,245,480,229.3C533.3,213,587,171,640,176C693.3,181,747,235,800,234.7C853.3,235,907,181,960,170.7C1013.3,160,1067,192,1120,213.3C1173.3,235,1227,245,1280,213.3C1333.3,181,1387,107,1413,69.3L1440,32L1440,320L1413.3,320C1386.7,320,1333,320,1280,320C1226.7,320,1173,320,1120,320C1066.7,320,1013,320,960,320C906.7,320,853,320,800,320C746.7,320,693,320,640,320C586.7,320,533,320,480,320C426.7,320,373,320,320,320C266.7,320,213,320,160,320C106.7,320,53,320,27,320L0,320Z"></path></svg>